name ./resultDataOpenSim/trcMotMarkerGrf/sub06/grf-05-03.mot
datacolumns 19
datarows 30
range 0.52000000 0.63600000
endheader

                time	     ground_force_vx	     ground_force_vy	     ground_force_vz	     ground_force_px	     ground_force_py	     ground_force_pz	   l_ground_force_vx	   l_ground_force_vy	   l_ground_force_vz	   l_ground_force_px	   l_ground_force_py	   l_ground_force_pz	     ground_torque_x	     ground_torque_y	     ground_torque_z	   l_ground_torque_x	   l_ground_torque_y	   l_ground_torque_z	
          0.52000000	         47.34710971	        409.09650193	        -21.35048035	         -0.78448921	          0.00000000	          0.16308508	          0.00000000	          0.00000000	          0.00000000	          0.00000000	          0.00000000	          0.00000000	          0.00000000	          1.60805031	          0.00000000	          0.00000000	          0.00000000	          0.00000000	
          0.52400000	         49.34657392	        425.42688100	        -21.62135653	         -0.78392609	          0.00000000	          0.16275913	          0.00000000	          0.00000000	          0.00000000	          0.00000000	          0.00000000	          0.00000000	          0.00000000	          1.72512673	          0.00000000	          0.00000000	          0.00000000	          0.00000000	
          0.52800000	         51.60835995	        441.63288026	        -22.07294724	         -0.78339389	          0.00000000	          0.16248489	          0.00000000	          0.00000000	          0.00000000	          0.00000000	          0.00000000	          0.00000000	          0.00000000	          1.85042740	          0.00000000	          0.00000000	          0.00000000	          0.00000000	
          0.53200000	         54.28470038	        457.63111043	        -22.86047999	         -0.78291219	          0.00000000	          0.16228369	          0.00000000	          0.00000000	          0.00000000	          0.00000000	          0.00000000	          0.00000000	          0.00000000	          1.96170016	          0.00000000	          0.00000000	          0.00000000	          0.00000000	
          0.53600000	         57.49441634	        473.37307845	        -24.05400359	         -0.78249604	          0.00000000	          0.16214925	          0.00000000	          0.00000000	          0.00000000	          0.00000000	          0.00000000	          0.00000000	          0.00000000	          2.04176781	          0.00000000	          0.00000000	          0.00000000	          0.00000000	
          0.54000000	         61.29367458	        488.87332283	        -25.62544078	         -0.78215403	          0.00000000	          0.16205993	          0.00000000	          0.00000000	          0.00000000	          0.00000000	          0.00000000	          0.00000000	          0.00000000	          2.08217524	          0.00000000	          0.00000000	          0.00000000	          0.00000000	
          0.54400000	         65.66085408	        504.20367240	        -27.45789623	         -0.78187991	          0.00000000	          0.16199713	          0.00000000	          0.00000000	          0.00000000	          0.00000000	          0.00000000	          0.00000000	          0.00000000	          2.08480040	          0.00000000	          0.00000000	          0.00000000	          0.00000000	
          0.54800000	         70.50606973	        519.45134818	        -29.37358583	         -0.78165002	          0.00000000	          0.16194431	          0.00000000	          0.00000000	          0.00000000	          0.00000000	          0.00000000	          0.00000000	          0.00000000	          2.06093410	          0.00000000	          0.00000000	          0.00000000	          0.00000000	
          0.55200000	         75.70664908	        534.67162215	        -31.17353188	         -0.78143883	          0.00000000	          0.16188360	          0.00000000	          0.00000000	          0.00000000	          0.00000000	          0.00000000	          0.00000000	          0.00000000	          2.02792695	          0.00000000	          0.00000000	          0.00000000	          0.00000000	
          0.55600000	         81.15301374	        549.85875322	        -32.67914061	         -0.78123548	          0.00000000	          0.16180117	          0.00000000	          0.00000000	          0.00000000	          0.00000000	          0.00000000	          0.00000000	          0.00000000	          2.00419108	          0.00000000	          0.00000000	          0.00000000	          0.00000000	
          0.56000000	         86.78184616	        564.93614569	        -33.76690803	         -0.78104304	          0.00000000	          0.16169185	          0.00000000	          0.00000000	          0.00000000	          0.00000000	          0.00000000	          0.00000000	          0.00000000	          2.00388746	          0.00000000	          0.00000000	          0.00000000	          0.00000000	
          0.56400000	         92.58699846	        579.76508807	        -34.39103549	         -0.78086658	          0.00000000	          0.16155825	          0.00000000	          0.00000000	          0.00000000	          0.00000000	          0.00000000	          0.00000000	          0.00000000	          2.03278602	          0.00000000	          0.00000000	          0.00000000	          0.00000000	
          0.56800000	         98.61565004	        594.17116402	        -34.58988333	         -0.78070494	          0.00000000	          0.16140815	          0.00000000	          0.00000000	          0.00000000	          0.00000000	          0.00000000	          0.00000000	          0.00000000	          2.08645858	          0.00000000	          0.00000000	          0.00000000	          0.00000000	
          0.57200000	        104.95388213	        607.97961499	        -34.47409078	         -0.78055590	          0.00000000	          0.16125241	          0.00000000	          0.00000000	          0.00000000	          0.00000000	          0.00000000	          0.00000000	          0.00000000	          2.15126188	          0.00000000	          0.00000000	          0.00000000	          0.00000000	
          0.57600000	        111.69637893	        621.04247119	        -34.19956548	         -0.78042935	          0.00000000	          0.16110215	          0.00000000	          0.00000000	          0.00000000	          0.00000000	          0.00000000	          0.00000000	          0.00000000	          2.20776001	          0.00000000	          0.00000000	          0.00000000	          0.00000000	
          0.58000000	        118.90566942	        633.23882027	        -33.93296751	         -0.78034602	          0.00000000	          0.16096589	          0.00000000	          0.00000000	          0.00000000	          0.00000000	          0.00000000	          0.00000000	          0.00000000	          2.23560807	          0.00000000	          0.00000000	          0.00000000	          0.00000000	
          0.58400000	        126.58019035	        644.45884428	        -33.81765433	         -0.78031157	          0.00000000	          0.16085475	          0.00000000	          0.00000000	          0.00000000	          0.00000000	          0.00000000	          0.00000000	          0.00000000	          2.21862831	          0.00000000	          0.00000000	          0.00000000	          0.00000000	
          0.58800000	        134.64340195	        654.60305296	        -33.94471948	         -0.78030369	          0.00000000	          0.16077754	          0.00000000	          0.00000000	          0.00000000	          0.00000000	          0.00000000	          0.00000000	          0.00000000	          2.14884875	          0.00000000	          0.00000000	          0.00000000	          0.00000000	
          0.59200000	        142.95553424	        663.59569631	        -34.33262038	         -0.78028599	          0.00000000	          0.16073385	          0.00000000	          0.00000000	          0.00000000	          0.00000000	          0.00000000	          0.00000000	          0.00000000	          2.02858206	          0.00000000	          0.00000000	          0.00000000	          0.00000000	
          0.59600000	        151.34552325	        671.38957520	        -34.92147346	         -0.78023169	          0.00000000	          0.16071593	          0.00000000	          0.00000000	          0.00000000	          0.00000000	          0.00000000	          0.00000000	          0.00000000	          1.87015574	          0.00000000	          0.00000000	          0.00000000	          0.00000000	
          0.60000000	        159.64792685	        677.95963681	        -35.58420391	         -0.78013379	          0.00000000	          0.16070578	          0.00000000	          0.00000000	          0.00000000	          0.00000000	          0.00000000	          0.00000000	          0.00000000	          1.69353512	          0.00000000	          0.00000000	          0.00000000	          0.00000000	
          0.60400000	        167.72025748	        683.29372163	        -36.15030644	         -0.77999057	          0.00000000	          0.16068193	          0.00000000	          0.00000000	          0.00000000	          0.00000000	          0.00000000	          0.00000000	          0.00000000	          1.52255920	          0.00000000	          0.00000000	          0.00000000	          0.00000000	
          0.60800000	        175.43741645	        687.38786791	        -36.44141386	         -0.77980089	          0.00000000	          0.16063052	          0.00000000	          0.00000000	          0.00000000	          0.00000000	          0.00000000	          0.00000000	          0.00000000	          1.38067002	          0.00000000	          0.00000000	          0.00000000	          0.00000000	
          0.61200000	        182.69003972	        690.24232070	        -36.31526147	         -0.77954938	          0.00000000	          0.16053887	          0.00000000	          0.00000000	          0.00000000	          0.00000000	          0.00000000	          0.00000000	          0.00000000	          1.28691619	          0.00000000	          0.00000000	          0.00000000	          0.00000000	
          0.61600000	        189.40331887	        691.84315688	        -35.70020363	         -0.77922373	          0.00000000	          0.16039974	          0.00000000	          0.00000000	          0.00000000	          0.00000000	          0.00000000	          0.00000000	          0.00000000	          1.25282633	          0.00000000	          0.00000000	          0.00000000	          0.00000000	
          0.62000000	        195.55682195	        692.14188616	        -34.60665193	         -0.77882835	          0.00000000	          0.16020985	          0.00000000	          0.00000000	          0.00000000	          0.00000000	          0.00000000	          0.00000000	          0.00000000	          1.28057381	          0.00000000	          0.00000000	          0.00000000	          0.00000000	
          0.62400000	        201.18220079	        691.05727440	        -33.11962734	         -0.77837424	          0.00000000	          0.15997331	          0.00000000	          0.00000000	          0.00000000	          0.00000000	          0.00000000	          0.00000000	          0.00000000	          1.36268034	          0.00000000	          0.00000000	          0.00000000	          0.00000000	
          0.62800000	        206.34437840	        688.49407170	        -31.37849945	         -0.77787029	          0.00000000	          0.15970001	          0.00000000	          0.00000000	          0.00000000	          0.00000000	          0.00000000	          0.00000000	          0.00000000	          1.48332890	          0.00000000	          0.00000000	          0.00000000	          0.00000000	
          0.63200000	        211.12568751	        684.36921600	        -29.54685308	         -0.77732625	          0.00000000	          0.15940735	          0.00000000	          0.00000000	          0.00000000	          0.00000000	          0.00000000	          0.00000000	          0.00000000	          1.62114879	          0.00000000	          0.00000000	          0.00000000	          0.00000000	
          0.63600000	        215.61614974	        678.63991146	        -27.78021883	         -0.77675782	          0.00000000	          0.15911090	          0.00000000	          0.00000000	          0.00000000	          0.00000000	          0.00000000	          0.00000000	          0.00000000	          1.75304707	          0.00000000	          0.00000000	          0.00000000	          0.00000000	
